<?xml version="1.0" encoding="utf-8"?>
<!-- Generator: Adobe Illustrator 28.0.0, SVG Export Plug-In . SVG Version: 6.00 Build 0)  -->
<svg version="1.1" id="Layer_1" xmlns="http://www.w3.org/2000/svg" xmlns:xlink="http://www.w3.org/1999/xlink" x="0px" y="0px"
	 viewBox="0 0 600 325" style="enable-background:new 0 0 600 325;" xml:space="preserve">
<style type="text/css">
	.st0{fill:#231F20;}
	.st1{fill:url(#SVGID_1_);}
	.st2{fill:url(#SVGID_00000155841749825458446260000014129427153763220113_);}
	.st3{fill:url(#SVGID_00000170237487191298066450000007042586494720634515_);}
	.st4{fill:url(#SVGID_00000045589439204313991320000009080786123960667030_);}
	.st5{fill:url(#SVGID_00000010282380398506644010000009110415859520717461_);}
	.st6{fill:#EC1C24;}
</style>
<g>
	<g>
		<path class="st0" d="M63,265.04l10.65-41.12h10.47c0.88,0,1.79,0.02,2.74,0.05c0.95,0.04,1.88,0.12,2.78,0.25
			c0.91,0.13,1.77,0.32,2.6,0.58c0.83,0.26,1.58,0.6,2.25,1.04c1.02,0.7,1.7,1.56,2.03,2.6c0.33,1.04,0.46,2.15,0.4,3.32
			c-0.04,0.7-0.12,1.39-0.25,2.08c-0.13,0.7-0.28,1.41-0.47,2.14l-4.79,18.26c-1.13,4.2-3.26,7.16-6.39,8.88
			c-1.47,0.84-2.97,1.37-4.5,1.59c-1.53,0.22-3.04,0.33-4.54,0.33H63z M74.57,257.64c0.22,0.04,0.44,0.05,0.66,0.05
			c0.22,0,0.42,0,0.6,0c1.28,0,2.31-0.17,3.1-0.49c0.78-0.33,1.42-0.81,1.91-1.45c0.49-0.64,0.89-1.44,1.2-2.41
			c0.31-0.97,0.6-2.09,0.89-3.37l3.5-13.43c0.1-0.44,0.18-0.85,0.26-1.23c0.08-0.38,0.12-0.72,0.14-1.01
			c0.03-0.66-0.05-1.18-0.25-1.56c-0.2-0.38-0.52-0.68-0.97-0.88c-0.45-0.2-1.02-0.33-1.73-0.38c-0.71-0.05-1.54-0.1-2.49-0.14
			L74.57,257.64z"/>
		<path class="st0" d="M94.86,265.04l10.65-41.12h22.09l-2.13,8.22h-12.45l-1.93,7.57h12.06l-2.19,8.22h-12.06l-2.27,8.88h13.1
			l-2.13,8.22H94.86z"/>
		<path class="st0" d="M123.64,265.04l10.65-41.12h10.47c0.88,0,1.79,0.02,2.74,0.05c0.95,0.04,1.88,0.12,2.78,0.25
			c0.91,0.13,1.77,0.32,2.6,0.58c0.83,0.26,1.58,0.6,2.25,1.04c1.02,0.7,1.7,1.56,2.03,2.6c0.33,1.04,0.46,2.15,0.4,3.32
			c-0.04,0.7-0.12,1.39-0.25,2.08c-0.13,0.7-0.28,1.41-0.47,2.14l-4.79,18.26c-1.13,4.2-3.26,7.16-6.39,8.88
			c-1.47,0.84-2.97,1.37-4.5,1.59c-1.53,0.22-3.04,0.33-4.54,0.33H123.64z M135.21,257.64c0.22,0.04,0.44,0.05,0.66,0.05
			c0.22,0,0.42,0,0.6,0c1.28,0,2.31-0.17,3.1-0.49c0.78-0.33,1.42-0.81,1.91-1.45c0.49-0.64,0.89-1.44,1.2-2.41
			c0.31-0.97,0.6-2.09,0.89-3.37l3.5-13.43c0.1-0.44,0.18-0.85,0.26-1.23c0.08-0.38,0.12-0.72,0.14-1.01
			c0.03-0.66-0.05-1.18-0.25-1.56c-0.2-0.38-0.52-0.68-0.97-0.88c-0.45-0.2-1.02-0.33-1.73-0.38c-0.71-0.05-1.54-0.1-2.49-0.14
			L135.21,257.64z"/>
		<path class="st0" d="M155.77,265.04l10.65-41.12h9.65l-10.65,41.12H155.77z"/>
		<path class="st0" d="M195.11,238.29l0.69-2.63c0.09-0.4,0.18-0.79,0.25-1.15c0.07-0.37,0.12-0.71,0.14-1.04
			c0.06-1.06-0.1-1.85-0.48-2.36c-0.38-0.51-0.91-0.77-1.6-0.77h-0.16c-1.46,0-2.51,0.38-3.16,1.15c-0.64,0.77-1.15,1.81-1.51,3.13
			l-5.34,20.34c-0.13,0.44-0.21,0.86-0.23,1.26c-0.04,0.77,0.15,1.36,0.56,1.78c0.42,0.42,1.14,0.63,2.16,0.63
			c0.8,0,1.5-0.19,2.09-0.58s1.07-0.87,1.45-1.45c0.38-0.58,0.69-1.23,0.95-1.92c0.26-0.69,0.45-1.35,0.6-1.97l0.96-3.73h9.65
			l-1.31,5.04c-0.46,1.75-1.14,3.37-2.04,4.85c-0.9,1.48-2.05,2.75-3.46,3.81c-1.41,1.06-3.07,1.88-4.98,2.47
			c-1.91,0.58-4.09,0.88-6.54,0.88c-3.62,0-6.18-0.74-7.67-2.22c-1.49-1.48-2.17-3.63-2.02-6.44c0.07-1.32,0.31-2.8,0.73-4.44
			l4.39-16.89c1.19-4.5,3.1-7.8,5.76-9.92c2.65-2.12,6.19-3.18,10.61-3.18c3.51,0,6.2,0.67,8.06,2c1.87,1.33,2.72,3.48,2.57,6.44
			c-0.06,1.13-0.25,2.28-0.56,3.45l-0.89,3.45H195.11z"/>
		<path class="st0" d="M199.74,265.04l19.64-41.12H231l-1.71,41.12h-9.76l0.69-8h-7.57l-3.22,8H199.74z M223.27,231.38h-0.11
			l-7.6,18.42h5.59L223.27,231.38z"/>
		<path class="st0" d="M238.84,223.92h25l-2.13,8.22h-7.79l-8.52,32.89h-9.65l8.52-32.89h-7.57L238.84,223.92z"/>
		<path class="st0" d="M257.19,265.04l10.65-41.12h22.09l-2.13,8.22h-12.45l-1.93,7.57h12.06l-2.19,8.22h-12.06l-2.27,8.88h13.1
			l-2.13,8.22H257.19z"/>
		<path class="st0" d="M285.98,265.04l10.65-41.12h10.47c0.88,0,1.79,0.02,2.74,0.05c0.95,0.04,1.88,0.12,2.78,0.25
			c0.91,0.13,1.77,0.32,2.6,0.58c0.83,0.26,1.58,0.6,2.25,1.04c1.02,0.7,1.7,1.56,2.03,2.6c0.33,1.04,0.46,2.15,0.4,3.32
			c-0.04,0.7-0.12,1.39-0.25,2.08c-0.13,0.7-0.28,1.41-0.47,2.14l-4.79,18.26c-1.13,4.2-3.26,7.16-6.39,8.88
			c-1.47,0.84-2.97,1.37-4.5,1.59c-1.53,0.22-3.04,0.33-4.54,0.33H285.98z M297.55,257.64c0.22,0.04,0.44,0.05,0.66,0.05
			c0.22,0,0.42,0,0.6,0c1.28,0,2.31-0.17,3.1-0.49c0.78-0.33,1.42-0.81,1.91-1.45c0.49-0.64,0.89-1.44,1.2-2.41
			c0.31-0.97,0.6-2.09,0.89-3.37l3.5-13.43c0.1-0.44,0.18-0.85,0.26-1.23c0.08-0.38,0.12-0.72,0.14-1.01
			c0.03-0.66-0.05-1.18-0.25-1.56c-0.2-0.38-0.52-0.68-0.97-0.88c-0.45-0.2-1.02-0.33-1.73-0.38c-0.71-0.05-1.54-0.1-2.49-0.14
			L297.55,257.64z"/>
		<path class="st0" d="M332.41,265.04l10.65-41.12h9.65l-8.52,32.9h11.79l-2.13,8.22H332.41z"/>
		<path class="st0" d="M387.82,251.94c-0.6,2.3-1.34,4.34-2.24,6.11c-0.9,1.77-2.01,3.24-3.33,4.41c-1.32,1.17-2.89,2.06-4.69,2.66
			c-1.8,0.6-3.93,0.91-6.38,0.91c-3.87,0-6.61-0.75-8.22-2.25c-1.6-1.5-2.33-3.73-2.17-6.69c0.04-0.77,0.14-1.58,0.29-2.44
			c0.15-0.86,0.35-1.76,0.58-2.71l4.38-16.72c1.05-3.98,2.97-7.03,5.77-9.13c2.8-2.1,6.31-3.15,10.55-3.15c3.58,0,6.25,0.76,8,2.27
			c1.75,1.52,2.55,3.7,2.4,6.55c-0.03,0.51-0.08,1.06-0.17,1.65c-0.08,0.58-0.22,1.19-0.4,1.81L387.82,251.94z M382.35,235.87
			c0.13-0.44,0.25-0.9,0.35-1.37c0.1-0.47,0.16-0.93,0.18-1.37c0.04-0.8-0.11-1.47-0.44-2c-0.34-0.53-1.02-0.79-2.04-0.79
			c-0.77,0-1.43,0.17-1.97,0.52c-0.55,0.35-1.01,0.79-1.38,1.32c-0.38,0.53-0.68,1.12-0.92,1.78c-0.24,0.66-0.44,1.3-0.62,1.92
			l-4.39,16.89c-0.1,0.4-0.19,0.83-0.29,1.29c-0.1,0.46-0.16,0.91-0.18,1.34c-0.04,0.84,0.09,1.59,0.4,2.25
			c0.31,0.66,1,0.99,2.06,0.99c0.77,0,1.43-0.19,1.98-0.58c0.55-0.38,1.01-0.87,1.39-1.45c0.38-0.58,0.69-1.23,0.92-1.92
			c0.24-0.69,0.43-1.33,0.57-1.92L382.35,235.87z"/>
		<path class="st0" d="M409.39,265.1l0.52-3.67h-0.11c-0.7,0.88-1.4,1.61-2.09,2.19c-0.69,0.58-1.41,1.06-2.16,1.42
			c-0.75,0.37-1.56,0.62-2.43,0.77c-0.87,0.15-1.81,0.22-2.83,0.22c-1.61,0-2.95-0.2-4.03-0.6c-1.07-0.4-1.93-0.98-2.57-1.73
			c-0.64-0.75-1.08-1.64-1.34-2.66c-0.26-1.02-0.35-2.16-0.29-3.4c0.04-0.73,0.12-1.49,0.26-2.27c0.13-0.79,0.31-1.6,0.54-2.44
			l4.39-16.89c1.19-4.5,3.1-7.8,5.76-9.92c2.65-2.12,6.19-3.18,10.61-3.18c3.51,0,6.19,0.66,8.04,1.97c1.85,1.32,2.7,3.45,2.54,6.41
			c-0.03,0.51-0.08,1.07-0.17,1.67c-0.09,0.6-0.22,1.22-0.4,1.84l-0.82,3.07h-9.65l0.61-2.25c0.14-0.58,0.26-1.12,0.36-1.62
			c0.1-0.49,0.16-0.94,0.18-1.34c0.04-0.77-0.1-1.34-0.43-1.73c-0.33-0.38-0.91-0.59-1.75-0.63h-0.17c-1.46,0-2.51,0.38-3.16,1.15
			c-0.64,0.77-1.15,1.81-1.51,3.13l-5.29,20.34c-0.13,0.44-0.21,0.84-0.23,1.21c-0.09,1.65,0.86,2.47,2.83,2.47
			c0.8,0,1.48-0.15,2.02-0.44c0.54-0.29,1-0.69,1.35-1.18c0.35-0.49,0.63-1.06,0.83-1.7c0.2-0.64,0.39-1.29,0.57-1.95l0.83-3.23
			h-3.45l1.92-7.4h13.1l-5.83,22.37H409.39z"/>
		<path class="st0" d="M422.6,265.04l10.65-41.12h9.65l-10.65,41.12H422.6z"/>
		<path class="st0" d="M449.8,251.28l-0.76,2.91c-0.14,0.55-0.22,1.08-0.25,1.59c-0.04,0.84,0.14,1.53,0.55,2.06
			c0.41,0.53,1.2,0.79,2.37,0.79c1.13,0,2.07-0.42,2.81-1.26c0.74-0.84,1.23-1.79,1.47-2.85c0.13-0.44,0.21-0.84,0.23-1.21
			c0.03-0.66-0.06-1.22-0.29-1.7c-0.23-0.47-0.54-0.9-0.92-1.29c-0.38-0.38-0.82-0.75-1.31-1.1c-0.49-0.35-0.97-0.69-1.43-1.01
			c-1.24-0.84-2.36-1.68-3.38-2.52c-1.02-0.84-1.84-1.79-2.48-2.85c-0.44-0.73-0.75-1.51-0.95-2.33c-0.19-0.82-0.26-1.76-0.21-2.82
			c0.05-0.88,0.21-1.9,0.49-3.07c1.01-3.87,2.84-6.79,5.5-8.75c2.66-1.95,5.87-2.93,9.64-2.93c3.4,0,5.89,0.82,7.46,2.47
			c1.58,1.65,2.29,3.84,2.15,6.58c-0.06,1.24-0.34,2.67-0.83,4.28h-8.88c0.1-0.51,0.21-1.02,0.33-1.54
			c0.12-0.51,0.19-1.02,0.22-1.53c0.04-0.73-0.08-1.37-0.37-1.92s-0.9-0.86-1.84-0.93h-0.38c-0.84,0-1.58,0.25-2.2,0.74
			c-0.63,0.49-1.11,1.16-1.45,2c-0.21,0.51-0.33,1.04-0.36,1.59c-0.04,0.73,0.13,1.36,0.5,1.89c0.37,0.53,0.86,1.05,1.45,1.56
			c1.51,1.17,2.91,2.17,4.2,2.99c1.29,0.82,2.38,1.76,3.28,2.82c0.58,0.73,1.02,1.54,1.32,2.44c0.3,0.9,0.42,1.98,0.35,3.26
			c-0.06,1.17-0.3,2.54-0.71,4.11c-1.05,3.98-2.9,7.03-5.55,9.13c-2.65,2.1-5.99,3.15-10.01,3.15c-1.9,0-3.52-0.21-4.85-0.63
			c-1.33-0.42-2.41-1-3.23-1.75c-0.82-0.75-1.4-1.62-1.76-2.6c-0.35-0.99-0.5-2.03-0.44-3.13c0.03-0.66,0.16-1.41,0.39-2.25
			l1.16-4.39H449.8z"/>
		<path class="st0" d="M477.06,223.92h25l-2.13,8.22h-7.79l-8.52,32.89h-9.65l8.52-32.89h-7.57L477.06,223.92z"/>
		<path class="st0" d="M496.78,265.04l10.65-41.12h9.65l-10.65,41.12H496.78z"/>
		<path class="st0" d="M536.12,238.29l0.69-2.63c0.09-0.4,0.18-0.79,0.25-1.15c0.07-0.37,0.12-0.71,0.14-1.04
			c0.06-1.06-0.1-1.85-0.48-2.36c-0.38-0.51-0.91-0.77-1.6-0.77h-0.16c-1.46,0-2.51,0.38-3.16,1.15c-0.64,0.77-1.15,1.81-1.51,3.13
			l-5.34,20.34c-0.13,0.44-0.21,0.86-0.23,1.26c-0.04,0.77,0.15,1.36,0.56,1.78c0.42,0.42,1.14,0.63,2.16,0.63
			c0.8,0,1.5-0.19,2.09-0.58s1.07-0.87,1.45-1.45c0.38-0.58,0.69-1.23,0.95-1.92c0.26-0.69,0.45-1.35,0.6-1.97l0.96-3.73h9.65
			l-1.31,5.04c-0.46,1.75-1.14,3.37-2.04,4.85c-0.9,1.48-2.05,2.75-3.46,3.81c-1.41,1.06-3.07,1.88-4.98,2.47
			c-1.91,0.58-4.09,0.88-6.54,0.88c-3.62,0-6.18-0.74-7.67-2.22c-1.49-1.48-2.17-3.63-2.02-6.44c0.07-1.32,0.31-2.8,0.73-4.44
			l4.39-16.89c1.19-4.5,3.1-7.8,5.76-9.92c2.65-2.12,6.19-3.18,10.61-3.18c3.51,0,6.2,0.67,8.06,2c1.87,1.33,2.72,3.48,2.57,6.44
			c-0.06,1.13-0.25,2.28-0.56,3.45l-0.89,3.45H536.12z"/>
		<path class="st0" d="M555.83,251.28l-0.76,2.91c-0.14,0.55-0.22,1.08-0.25,1.59c-0.04,0.84,0.14,1.53,0.55,2.06
			c0.41,0.53,1.2,0.79,2.37,0.79c1.13,0,2.07-0.42,2.81-1.26c0.74-0.84,1.23-1.79,1.47-2.85c0.13-0.44,0.21-0.84,0.23-1.21
			c0.03-0.66-0.06-1.22-0.29-1.7c-0.23-0.47-0.54-0.9-0.92-1.29c-0.38-0.38-0.82-0.75-1.31-1.1c-0.49-0.35-0.97-0.69-1.43-1.01
			c-1.24-0.84-2.36-1.68-3.38-2.52c-1.02-0.84-1.84-1.79-2.48-2.85c-0.44-0.73-0.75-1.51-0.95-2.33c-0.19-0.82-0.26-1.76-0.21-2.82
			c0.05-0.88,0.21-1.9,0.49-3.07c1.01-3.87,2.84-6.79,5.5-8.75c2.66-1.95,5.87-2.93,9.64-2.93c3.4,0,5.89,0.82,7.46,2.47
			c1.58,1.65,2.29,3.84,2.15,6.58c-0.06,1.24-0.34,2.67-0.83,4.28h-8.88c0.1-0.51,0.21-1.02,0.33-1.54
			c0.12-0.51,0.19-1.02,0.22-1.53c0.04-0.73-0.08-1.37-0.37-1.92c-0.28-0.55-0.9-0.86-1.84-0.93h-0.38c-0.84,0-1.58,0.25-2.2,0.74
			c-0.63,0.49-1.11,1.16-1.45,2c-0.21,0.51-0.33,1.04-0.36,1.59c-0.04,0.73,0.13,1.36,0.5,1.89c0.37,0.53,0.86,1.05,1.45,1.56
			c1.51,1.17,2.91,2.17,4.2,2.99c1.29,0.82,2.38,1.76,3.28,2.82c0.58,0.73,1.02,1.54,1.32,2.44c0.3,0.9,0.42,1.98,0.35,3.26
			c-0.06,1.17-0.3,2.54-0.71,4.11c-1.05,3.98-2.9,7.03-5.55,9.13c-2.65,2.1-5.99,3.15-10.01,3.15c-1.9,0-3.52-0.21-4.85-0.63
			c-1.33-0.42-2.41-1-3.23-1.75c-0.82-0.75-1.4-1.62-1.76-2.6c-0.35-0.99-0.5-2.03-0.44-3.13c0.03-0.66,0.16-1.41,0.39-2.25
			l1.16-4.39H555.83z"/>
		<path class="st0" d="M94.19,315.44l10.65-41.12h9.65l-8.52,32.9h11.79l-2.13,8.22H94.19z"/>
		<path class="st0" d="M120.39,315.44l10.65-41.12h22.09l-2.13,8.22h-12.45l-1.93,7.57h12.06l-2.19,8.22h-12.06l-2.27,8.88h13.1
			l-2.13,8.22H120.39z"/>
		<path class="st0" d="M147.15,315.44l19.64-41.12h11.62l-1.71,41.12h-9.76l0.69-8h-7.57l-3.22,8H147.15z M170.68,281.78h-0.11
			l-7.6,18.42h5.59L170.68,281.78z"/>
		<path class="st0" d="M191.89,301.68l-0.76,2.91c-0.14,0.55-0.22,1.08-0.25,1.59c-0.04,0.84,0.14,1.53,0.55,2.06
			c0.41,0.53,1.2,0.79,2.37,0.79c1.13,0,2.07-0.42,2.81-1.26c0.74-0.84,1.23-1.79,1.47-2.85c0.13-0.44,0.21-0.84,0.23-1.21
			c0.03-0.66-0.06-1.22-0.29-1.7c-0.23-0.47-0.54-0.9-0.92-1.29c-0.38-0.38-0.82-0.75-1.31-1.1c-0.49-0.35-0.97-0.69-1.43-1.01
			c-1.24-0.84-2.36-1.68-3.38-2.52c-1.02-0.84-1.84-1.79-2.48-2.85c-0.44-0.73-0.75-1.51-0.95-2.33c-0.19-0.82-0.26-1.76-0.21-2.82
			c0.05-0.88,0.21-1.9,0.49-3.07c1.01-3.87,2.84-6.79,5.5-8.75c2.66-1.95,5.87-2.93,9.64-2.93c3.4,0,5.89,0.82,7.46,2.47
			c1.58,1.65,2.29,3.84,2.15,6.58c-0.06,1.24-0.34,2.67-0.83,4.28h-8.88c0.1-0.51,0.21-1.02,0.33-1.54
			c0.12-0.51,0.19-1.02,0.22-1.53c0.04-0.73-0.08-1.37-0.37-1.92c-0.28-0.55-0.9-0.86-1.84-0.93h-0.38c-0.84,0-1.58,0.25-2.2,0.74
			c-0.63,0.49-1.11,1.16-1.45,2c-0.21,0.51-0.33,1.04-0.36,1.59c-0.04,0.73,0.13,1.36,0.5,1.89c0.37,0.53,0.86,1.05,1.45,1.56
			c1.51,1.17,2.91,2.17,4.2,2.99c1.29,0.82,2.38,1.76,3.28,2.82c0.58,0.73,1.02,1.54,1.32,2.44c0.3,0.9,0.42,1.98,0.35,3.26
			c-0.06,1.17-0.3,2.54-0.71,4.11c-1.05,3.98-2.9,7.03-5.55,9.13c-2.65,2.1-5.99,3.15-10.01,3.15c-1.9,0-3.52-0.21-4.85-0.63
			c-1.33-0.42-2.41-1-3.23-1.75c-0.82-0.75-1.4-1.62-1.75-2.6c-0.35-0.99-0.5-2.03-0.44-3.13c0.03-0.66,0.16-1.41,0.39-2.25
			l1.16-4.39H191.89z"/>
		<path class="st0" d="M210.09,315.44l10.65-41.12h9.65l-10.65,41.12H210.09z"/>
		<path class="st0" d="M240.63,292.41l-0.17,0.11l-5.04,22.92h-9.16l10.65-41.12h9.92l1.48,22.97h0.16l5.04-22.97h9.16l-10.65,41.12
			h-9.87L240.63,292.41z"/>
		<path class="st0" d="M277.19,315.5l0.52-3.67h-0.11c-0.7,0.88-1.4,1.61-2.09,2.19c-0.69,0.58-1.41,1.06-2.16,1.42
			c-0.75,0.37-1.56,0.62-2.43,0.77c-0.87,0.15-1.81,0.22-2.83,0.22c-1.61,0-2.95-0.2-4.03-0.6c-1.07-0.4-1.93-0.98-2.57-1.73
			c-0.64-0.75-1.08-1.64-1.34-2.66c-0.26-1.02-0.35-2.16-0.29-3.4c0.04-0.73,0.12-1.49,0.26-2.27c0.13-0.79,0.31-1.6,0.54-2.44
			l4.39-16.89c1.19-4.5,3.1-7.8,5.76-9.92c2.65-2.12,6.19-3.18,10.61-3.18c3.51,0,6.19,0.66,8.04,1.97c1.85,1.32,2.7,3.45,2.54,6.41
			c-0.03,0.51-0.08,1.07-0.17,1.67c-0.09,0.6-0.22,1.22-0.4,1.84l-0.82,3.07h-9.65l0.61-2.25c0.14-0.58,0.26-1.12,0.36-1.62
			c0.1-0.49,0.16-0.94,0.18-1.34c0.04-0.77-0.1-1.34-0.43-1.73c-0.33-0.38-0.91-0.59-1.75-0.63h-0.17c-1.46,0-2.51,0.38-3.16,1.15
			c-0.64,0.77-1.15,1.81-1.51,3.13l-5.29,20.34c-0.13,0.44-0.21,0.84-0.23,1.21c-0.09,1.65,0.86,2.47,2.83,2.47
			c0.8,0,1.48-0.15,2.02-0.44c0.54-0.29,1-0.69,1.35-1.18c0.35-0.49,0.63-1.06,0.83-1.7c0.2-0.64,0.39-1.29,0.57-1.95l0.83-3.23
			h-3.45l1.92-7.4h13.1l-5.83,22.37H277.19z"/>
		<path class="st0" d="M327.32,313.08c-3.15,2.23-6.48,3.34-9.99,3.34c-3.18,0-5.62-0.82-7.33-2.47c-1.71-1.64-2.48-3.89-2.33-6.74
			c0.05-0.91,0.21-1.92,0.49-3.01c0.77-2.85,2.1-5.37,3.99-7.57c1.89-2.19,4.24-4.04,7.06-5.54c-1.03-1.94-1.49-4.06-1.37-6.36
			c0.02-0.47,0.07-0.93,0.13-1.37c0.06-0.44,0.16-0.91,0.29-1.43c0.37-1.43,1.01-2.68,1.92-3.76c0.91-1.08,1.98-1.97,3.18-2.69
			c1.21-0.71,2.5-1.25,3.87-1.62c1.37-0.37,2.68-0.55,3.92-0.55c1.21,0,2.31,0.15,3.32,0.44c1.01,0.29,1.87,0.72,2.59,1.29
			c0.72,0.57,1.28,1.28,1.67,2.14c0.39,0.86,0.56,1.86,0.5,2.99c-0.02,0.33-0.05,0.67-0.11,1.01c-0.06,0.35-0.13,0.7-0.22,1.07
			c-0.6,2.34-1.77,4.35-3.52,6.03c-1.75,1.68-3.77,3.05-6.05,4.11c0.45,1.17,0.9,2.33,1.35,3.48c0.45,1.15,0.87,2.31,1.24,3.48h0.11
			c0.49-1.02,0.95-2.01,1.36-2.96c0.41-0.95,0.83-1.9,1.25-2.85h7.07c-0.63,2.3-1.58,4.54-2.85,6.72c-1.27,2.18-2.66,4.27-4.19,6.28
			l3.37,8.88h-9.81L327.32,313.08z M321.29,297.29c-0.61,0.51-1.16,1-1.64,1.45c-0.48,0.46-0.9,0.93-1.25,1.43
			c-0.35,0.49-0.66,1.02-0.91,1.59c-0.25,0.57-0.47,1.22-0.65,1.95c-0.05,0.18-0.08,0.37-0.11,0.58c-0.03,0.2-0.05,0.39-0.06,0.58
			c-0.06,1.17,0.25,2.16,0.94,2.96c0.69,0.8,1.67,1.21,2.95,1.21c0.73-0.04,1.49-0.24,2.28-0.6c0.79-0.36,1.56-0.77,2.31-1.21
			L321.29,297.29z M328.92,279.37c-0.73,0-1.38,0.25-1.93,0.74c-0.56,0.49-0.93,1.09-1.11,1.78c-0.05,0.18-0.08,0.37-0.11,0.55
			c-0.03,0.18-0.05,0.37-0.06,0.55c-0.04,0.73,0.05,1.44,0.27,2.11c0.22,0.68,0.52,1.25,0.9,1.73c0.41-0.18,0.84-0.45,1.28-0.79
			c0.44-0.35,0.84-0.74,1.21-1.18c0.37-0.44,0.7-0.89,1-1.34c0.3-0.46,0.49-0.89,0.59-1.29c0.08-0.18,0.13-0.37,0.14-0.55
			c0.01-0.18,0.02-0.35,0.03-0.49C331.19,279.97,330.45,279.37,328.92,279.37z"/>
		<path class="st0" d="M367.65,315.44h-9.65l10.65-41.12h14.09c3.29,0,5.74,0.58,7.34,1.76c1.6,1.17,2.33,3.11,2.19,5.81
			c-0.03,0.55-0.1,1.13-0.2,1.75c-0.11,0.62-0.25,1.3-0.43,2.03c-0.55,2.19-1.37,4.07-2.46,5.62c-1.09,1.55-2.77,2.81-5.05,3.76
			l-0.06,0.11c1.15,0.29,2.04,0.8,2.66,1.53c0.62,0.73,0.9,1.68,0.84,2.85c-0.01,0.15-0.02,0.29-0.02,0.44
			c-0.01,0.15-0.04,0.31-0.08,0.49c-0.15,0.84-0.36,1.86-0.63,3.07c-0.26,1.21-0.53,2.43-0.8,3.67c-0.27,1.24-0.5,2.43-0.71,3.56
			c-0.21,1.13-0.33,2.03-0.36,2.69c0.06,0.29,0.13,0.56,0.21,0.79c0.08,0.24,0.2,0.45,0.38,0.63l-0.14,0.55h-10.53
			c-0.08-0.47-0.11-0.97-0.09-1.48c0.01-0.15,0.02-0.29,0.02-0.44c0.01-0.15,0.03-0.29,0.08-0.44c0.39-1.83,0.82-3.55,1.29-5.18
			c0.47-1.63,0.81-3.08,1.02-4.36c0.05-0.18,0.07-0.35,0.08-0.49c0.01-0.18,0.02-0.37,0.03-0.55c0.05-0.95-0.08-1.72-0.4-2.3
			c-0.32-0.58-0.95-0.91-1.89-0.99h-3.18L367.65,315.44z M373.77,291.81h3.29c0.69,0,1.3-0.15,1.83-0.44
			c0.53-0.29,0.98-0.68,1.35-1.15c0.37-0.47,0.69-1.02,0.96-1.65c0.27-0.62,0.48-1.24,0.62-1.86c0.23-0.91,0.36-1.63,0.39-2.14
			c0.06-1.24-0.28-2.03-1.03-2.36c-0.75-0.33-1.89-0.49-3.43-0.49h-1.37L373.77,291.81z"/>
		<path class="st0" d="M390.08,315.44l10.65-41.12h22.09l-2.13,8.22h-12.45l-1.93,7.57h12.06l-2.19,8.22h-12.06l-2.27,8.88h13.1
			l-2.13,8.22H390.08z"/>
		<path class="st0" d="M433.06,292.41l-0.17,0.11l-5.04,22.92h-9.16l10.65-41.12h9.92l1.48,22.97h0.16l5.04-22.97h9.16l-10.65,41.12
			h-9.87L433.06,292.41z"/>
		<path class="st0" d="M460.05,274.32h25l-2.13,8.22h-7.79l-8.52,32.89h-9.65l8.52-32.89h-7.57L460.05,274.32z"/>
		<path class="st0" d="M474.45,315.44l19.64-41.12h11.62l-1.71,41.12h-9.76l0.69-8h-7.57l-3.22,8H474.45z M497.98,281.78h-0.11
			l-7.6,18.42h5.59L497.98,281.78z"/>
		<path class="st0" d="M507.84,315.44l10.65-41.12h9.65l-8.52,32.9h11.79l-2.13,8.22H507.84z"/>
	</g>
	<g>
		<g>
			
				<linearGradient id="SVGID_1_" gradientUnits="userSpaceOnUse" x1="549.6556" y1="55.4236" x2="677.8515" y2="88.5773" gradientTransform="matrix(1 0 0 1 -512.5831 0)">
				<stop  offset="0.03" style="stop-color:#EC1C24;stop-opacity:0"/>
				<stop  offset="0.6078" style="stop-color:#EA2127"/>
			</linearGradient>
			<polygon class="st1" points="167.23,80.82 171.84,63.18 35.11,63.18 30.5,80.82 			"/>
			
				<linearGradient id="SVGID_00000182514788505330682930000002734214055432835465_" gradientUnits="userSpaceOnUse" x1="542.4256" y1="83.1007" x2="670.6169" y2="116.2532" gradientTransform="matrix(1 0 0 1 -512.5831 0)">
				<stop  offset="0.03" style="stop-color:#EC1C24;stop-opacity:0"/>
				<stop  offset="0.6078" style="stop-color:#EA2127"/>
			</linearGradient>
			<polygon style="fill:url(#SVGID_00000182514788505330682930000002734214055432835465_);" points="159.99,108.49 164.6,90.86 
				27.88,90.86 23.28,108.49 			"/>
			
				<linearGradient id="SVGID_00000011019173454049676960000008564095718770262404_" gradientUnits="userSpaceOnUse" x1="535.1959" y1="110.7767" x2="663.3826" y2="143.928" gradientTransform="matrix(1 0 0 1 -512.5831 0)">
				<stop  offset="0.03" style="stop-color:#EC1C24;stop-opacity:0"/>
				<stop  offset="0.6078" style="stop-color:#EA2127"/>
			</linearGradient>
			<polygon style="fill:url(#SVGID_00000011019173454049676960000008564095718770262404_);" points="152.76,136.17 157.37,118.54 
				20.65,118.54 16.05,136.17 			"/>
			
				<linearGradient id="SVGID_00000183968802014057803660000002935063993422670258_" gradientUnits="userSpaceOnUse" x1="527.9653" y1="138.4556" x2="656.1477" y2="171.6058" gradientTransform="matrix(1 0 0 1 -512.5831 0)">
				<stop  offset="0.03" style="stop-color:#EC1C24;stop-opacity:0"/>
				<stop  offset="0.6078" style="stop-color:#EA2127"/>
			</linearGradient>
			<polygon style="fill:url(#SVGID_00000183968802014057803660000002935063993422670258_);" points="145.52,163.85 150.13,146.21 
				13.42,146.21 8.82,163.85 			"/>
			
				<linearGradient id="SVGID_00000018929817182837292780000005966620594141160596_" gradientUnits="userSpaceOnUse" x1="520.7349" y1="166.1341" x2="648.9128" y2="199.2831" gradientTransform="matrix(1 0 0 1 -512.5831 0)">
				<stop  offset="0.03" style="stop-color:#EC1C24;stop-opacity:0"/>
				<stop  offset="0.6078" style="stop-color:#EA2127"/>
			</linearGradient>
			<polygon style="fill:url(#SVGID_00000018929817182837292780000005966620594141160596_);" points="138.29,191.53 142.9,173.89 
				6.19,173.89 1.58,191.53 			"/>
		</g>
		<g>
			<path class="st0" d="M297.34,63.18H186.55l-5.23,26.17c0,0,27.08,0,35.46,0c-2.65,10.8-25.13,102.22-25.13,102.22h42.04
				c0,0,22.83-94.25,24.5-101.13c6.02,0,37.91,0,37.91,0l7.52-27.26H297.34z"/>
			<path class="st0" d="M422.83,63.18h-82.61c-6.61,0-12.89,2.36-18.66,7c-5.7,4.59-9.53,10.25-11.38,16.84
				c-0.02,0.06-0.03,0.1-19.69,76.15c-0.58,2.24-0.88,4.54-0.88,6.83c0,5.99,2.08,11.3,6.01,15.35c3.92,4.06,9.2,6.21,15.25,6.21
				h86.46l6.93-27.26H339.8c-2.74,0-3.95-0.86-4.7-1.61c-0.72-0.71-1.44-1.78-1.47-4.08c0.07-0.64,0.42-3.78,0.42-3.78
				s-0.06,0.07-0.06,0.07c0.52-1.66,1.13-4.02,2.07-7.64l11.54-44.71c0.9-3.15,2.89-5.95,6.06-8.46c3.16-2.5,6.18-3.67,9.49-3.67
				h58.88l6.93-27.26H422.83z"/>
			<polygon class="st0" points="486.28,63.18 450.7,63.18 418.72,191.57 460.42,191.57 492.39,63.18 			"/>
		</g>
		<g>
			<path class="st6" d="M495.28,184.82c29.46-17.96,48.68-39.85,56.07-58.35c11.98-29.98-1.13-57.32-34.09-74.56
				C425.13,3.73,287.4,19.24,161.59,41.63c81.28-11.55,168.82-18.39,251.49-8.94c36.85,4.21,128.96,20.82,132.3,74.26
				c1.62,26.01-21.74,57.24-55.3,81.53c0.19-0.13,0.38-0.25,0.57-0.38C492.22,187,493.77,185.92,495.28,184.82z"/>
			<path class="st0" d="M424.33,13.06c-101.79-10.45-210.32,9.47-306.87,35.4c14.45-2.42,29.27-4.2,44.12-6.84
				C287.4,19.24,425.13,3.73,517.26,51.91c32.96,17.24,46.07,44.58,34.09,74.56c-7.39,18.5-26.6,40.39-56.07,58.35
				c-1.51,1.09-3.06,2.18-4.64,3.26c-0.19,0.13-0.38,0.25-0.57,0.38c-3.09,2.11-6.28,4.19-9.58,6.24
				c45.32-18.41,85.49-49.46,89.17-93.89C574.72,39.6,488.4,19.64,424.33,13.06z"/>
		</g>
	</g>
</g>
</svg>
